<svg xmlns="http://www.w3.org/2000/svg" fill="none" viewBox="1.5 0 28.99 32">
<path d="M30.4893 31.4463L26.4815 9.40325C26.441 9.17994 26.2465 9.01762 26.0195 9.01762H22.4813V6.29356C22.4813 6.03419 22.271 5.82387 22.0116 5.82387C21.7521 5.82387 21.5419 6.03419 21.5419 6.29356V9.01762H20.4773V2.94325H21.5419V4.07044C21.5419 4.32981 21.7521 4.54012 22.0116 4.54012C22.271 4.54012 22.4813 4.32981 22.4813 4.07044V2.47356C22.4813 2.35037 22.4308 2.2285 22.3438 2.1415L20.3398 0.137562C20.2516 0.0495 20.1322 0 20.0076 0H11.992C11.8686 0 11.7471 0.050375 11.6599 0.137562L9.65595 2.1415C9.56889 2.2285 9.51845 2.35056 9.51845 2.47356V9.01762H5.98027C5.75327 9.01762 5.55883 9.17994 5.5182 9.40325L1.51033 31.4463C1.4587 31.7304 1.68408 32 1.97239 32H30.0272C30.3155 32 30.5409 31.7304 30.4893 31.4463ZM12.1866 0.939313H19.8131L20.8777 2.00388H11.122L12.1866 0.939313ZM19.538 2.94325V9.01762H12.4616V2.94325H19.538ZM10.4578 2.94325H11.5223V9.01762H10.4578V2.94325ZM2.53514 31.0607L6.3722 9.957H25.6273L29.4644 31.0607H2.53514Z" fill="#EE3224"/>
<path d="M16 11.5225C11.0449 11.5225 7.01367 15.5538 7.01367 20.5088C7.01367 25.4639 11.0449 29.4951 16 29.4951C20.955 29.4951 24.9863 25.4639 24.9863 20.5088C24.9863 15.5538 20.955 11.5225 16 11.5225ZM16 28.5558C11.5629 28.5558 7.95305 24.9459 7.95305 20.5088C7.95305 16.0718 11.5629 12.4618 16 12.4618C20.4371 12.4618 24.0469 16.0717 24.0469 20.5088C24.0469 24.9458 20.4371 28.5558 16 28.5558Z" fill="#EE3224"/>
<path d="M12.7436 15.0294C12.6238 15.0294 12.4906 15.0141 12.3737 15.0447C12.1697 15.0982 12.0234 15.2883 12.0234 15.499V25.2681C12.0234 25.9414 12.5712 26.4892 13.2446 26.4892C13.9179 26.4892 14.4657 25.9414 14.4657 25.2681V21.4795H14.998C15.2574 21.4795 15.4677 21.2692 15.4677 21.0098V17.7534C15.4677 16.2514 14.2457 15.0294 12.7436 15.0294ZM14.5284 20.5401H13.9961C13.7366 20.5401 13.5264 20.7504 13.5264 21.0098V25.2681C13.5264 25.4235 13.3999 25.5499 13.2446 25.5499C13.0892 25.5499 12.9628 25.4235 12.9628 25.2681V15.9821C13.8439 16.0904 14.5283 16.8435 14.5283 17.7534L14.5284 20.5401Z" fill="#EE3224"/>
<path d="M20.0079 15.0294C19.7485 15.0294 19.5382 15.2397 19.5382 15.4991V17.5343H18.9746V15.4991C18.9746 15.2397 18.7644 15.0294 18.5049 15.0294C18.2455 15.0294 18.0352 15.2397 18.0352 15.4991V17.5343H17.4716V15.4991C17.4716 15.2397 17.2614 15.0294 17.0019 15.0294C16.7425 15.0294 16.5322 15.2397 16.5322 15.4991V18.5049C16.5322 19.0464 16.8279 19.5322 17.2837 19.7876V25.2681C17.2837 25.9414 17.8315 26.4892 18.5048 26.4892C19.1781 26.4892 19.7259 25.9414 19.7259 25.2681V19.7875C20.1817 19.5321 20.4774 19.0462 20.4774 18.5049V15.499C20.4776 15.2396 20.2674 15.0294 20.0079 15.0294ZM19.5383 18.5049C19.5383 18.7471 19.3742 18.9586 19.1392 19.0192C18.9318 19.0727 18.7869 19.2597 18.7869 19.4739V25.2681C18.7869 25.4234 18.6604 25.5499 18.505 25.5499C18.3497 25.5499 18.2232 25.4234 18.2232 25.2681V19.474C18.2232 19.2597 18.0783 19.0727 17.8709 19.0192C17.6359 18.9586 17.4718 18.7472 17.4718 18.5049V18.4736H19.5384V18.5049H19.5383Z" fill="#EE3224"/>
</svg>