<svg width="83" height="83" viewBox="0 0 83 83" fill="none" xmlns="http://www.w3.org/2000/svg">
<path d="M56.7167 0H26.2833C22.4653 0.00449583 19.3712 3.09867 19.3667 6.91667V76.0833C19.3712 79.9013 22.4653 82.9955 26.2833 83H56.7167C60.5347 82.9955 63.6288 79.9013 63.6333 76.0833V6.91667C63.6288 3.09867 60.5347 0.00449583 56.7167 0ZM36.0026 80.2333H26.2833C23.9913 80.2333 22.1333 78.3753 22.1333 76.0833V71.9333H36.0026C34.1108 74.3766 34.1108 77.79 36.0026 80.2333ZM41.5 80.2333C39.208 80.2333 37.35 78.3753 37.35 76.0833C37.35 73.7913 39.208 71.9333 41.5 71.9333C43.792 71.9333 45.65 73.7913 45.65 76.0833C45.65 78.3753 43.792 80.2333 41.5 80.2333ZM60.8667 76.0833C60.8667 78.3753 59.0087 80.2333 56.7167 80.2333H46.9974C48.8892 77.79 48.8892 74.3766 46.9974 71.9333H60.8667V76.0833ZM60.8667 69.1667H22.1333V15.2167H60.8667V69.1667ZM60.8667 12.45H22.1333V6.91667C22.1333 4.62466 23.9913 2.76667 26.2833 2.76667H56.7167C59.0087 2.76667 60.8667 4.62466 60.8667 6.91667V12.45Z" fill="#5201BB"/>
<path d="M45.65 6.91666H31.8167V9.68333H45.65V6.91666Z" fill="#5201BB"/>
<path d="M35.9667 27.6667H30.4333C28.1413 27.6667 26.2833 29.5247 26.2833 31.8167V37.35C26.2833 39.642 28.1413 41.5 30.4333 41.5H35.9667C38.2587 41.5 40.1167 39.642 40.1167 37.35V31.8167C40.1167 29.5247 38.2587 27.6667 35.9667 27.6667ZM37.35 37.35C37.35 38.114 36.7306 38.7333 35.9667 38.7333H30.4333C29.6694 38.7333 29.05 38.114 29.05 37.35V31.8167C29.05 31.0527 29.6694 30.4333 30.4333 30.4333H35.9667C36.7306 30.4333 37.35 31.0527 37.35 31.8167V37.35Z" fill="#5201BB"/>
<path d="M52.5667 27.6667H47.0333C44.7413 27.6667 42.8833 29.5247 42.8833 31.8167V37.35C42.8833 39.642 44.7413 41.5 47.0333 41.5H52.5667C54.8587 41.5 56.7167 39.642 56.7167 37.35V31.8167C56.7167 29.5247 54.8587 27.6667 52.5667 27.6667ZM53.95 37.35C53.95 38.114 53.3306 38.7333 52.5667 38.7333H47.0333C46.2694 38.7333 45.65 38.114 45.65 37.35V31.8167C45.65 31.0527 46.2694 30.4333 47.0333 30.4333H52.5667C53.3306 30.4333 53.95 31.0527 53.95 31.8167V37.35Z" fill="#5201BB"/>
<path d="M35.9667 44.2667H30.4333C28.1413 44.2667 26.2833 46.1247 26.2833 48.4167V53.95C26.2833 56.242 28.1413 58.1 30.4333 58.1H35.9667C38.2587 58.1 40.1167 56.242 40.1167 53.95V48.4167C40.1167 46.1247 38.2587 44.2667 35.9667 44.2667ZM37.35 53.95C37.35 54.7139 36.7306 55.3333 35.9667 55.3333H30.4333C29.6694 55.3333 29.05 54.7139 29.05 53.95V48.4167C29.05 47.6527 29.6694 47.0333 30.4333 47.0333H35.9667C36.7306 47.0333 37.35 47.6527 37.35 48.4167V53.95Z" fill="#5201BB"/>
<path d="M52.5667 44.2667H47.0333C44.7413 44.2667 42.8833 46.1247 42.8833 48.4167V53.95C42.8833 56.242 44.7413 58.1 47.0333 58.1H52.5667C54.8587 58.1 56.7167 56.242 56.7167 53.95V48.4167C56.7167 46.1247 54.8587 44.2667 52.5667 44.2667ZM53.95 53.95C53.95 54.7139 53.3306 55.3333 52.5667 55.3333H47.0333C46.2694 55.3333 45.65 54.7139 45.65 53.95V48.4167C45.65 47.6527 46.2694 47.0333 47.0333 47.0333H52.5667C53.3306 47.0333 53.95 47.6527 53.95 48.4167V53.95Z" fill="#5201BB"/>
<path d="M30.4333 17.9833H26.2833C25.5194 17.9833 24.9 18.6027 24.9 19.3667V23.5167C24.9 24.2806 25.5194 24.9 26.2833 24.9C27.0473 24.9 27.6667 24.2806 27.6667 23.5167V20.75H30.4333C31.1973 20.75 31.8167 20.1306 31.8167 19.3667C31.8167 18.6027 31.1973 17.9833 30.4333 17.9833Z" fill="#5201BB"/>
<path d="M38.7333 17.9833H35.9667C35.2027 17.9833 34.5833 18.6027 34.5833 19.3667C34.5833 20.1306 35.2027 20.75 35.9667 20.75H38.7333C39.4973 20.75 40.1167 20.1306 40.1167 19.3667C40.1167 18.6027 39.4973 17.9833 38.7333 17.9833Z" fill="#5201BB"/>
<path d="M51.1833 6.91666H48.4167V9.68333H51.1833V6.91666Z" fill="#5201BB"/>
</svg>
