<svg xmlns="http://www.w3.org/2000/svg" fill="none" viewBox="0 0 21 21">
<g clip-path="url(#clip0_1_170)">
<path d="M12.4688 3.9375H4.59375C4.2315 3.9375 3.9375 4.2315 3.9375 4.59375C3.9375 4.956 4.2315 5.25 4.59375 5.25H12.4688C12.831 5.25 13.125 4.956 13.125 4.59375C13.125 4.2315 12.831 3.9375 12.4688 3.9375Z" fill="black"/>
<path d="M9.84375 6.5625H4.59375C4.2315 6.5625 3.9375 6.8565 3.9375 7.21875C3.9375 7.581 4.2315 7.875 4.59375 7.875H9.84375C10.206 7.875 10.5 7.581 10.5 7.21875C10.5 6.8565 10.206 6.5625 9.84375 6.5625Z" fill="black"/>
<path d="M14.4375 0H2.625C1.17731 0 0 1.17731 0 2.625V15.75C0 16.0046 0.147 16.2369 0.378 16.3446C0.465937 16.3853 0.56175 16.4062 0.65625 16.4062C0.807187 16.4062 0.956813 16.3538 1.07625 16.254L4.83131 13.125H14.4375C15.8852 13.125 17.0625 11.9477 17.0625 10.5V2.625C17.0625 1.17731 15.8852 0 14.4375 0ZM15.75 10.5C15.75 11.2232 15.162 11.8125 14.4375 11.8125H4.59375C4.44019 11.8125 4.29187 11.8663 4.17375 11.9648L1.3125 14.3496V2.625C1.3125 1.90181 1.9005 1.3125 2.625 1.3125H14.4375C15.162 1.3125 15.75 1.90181 15.75 2.625V10.5Z" fill="black"/>
<path d="M18.375 5.25C18.0127 5.25 17.7188 5.544 17.7188 5.90625C17.7188 6.2685 18.0127 6.5625 18.375 6.5625C19.0995 6.5625 19.6875 7.15181 19.6875 7.875V18.9774L17.472 17.2056C17.3565 17.1137 17.2108 17.0625 17.0625 17.0625H7.875C7.1505 17.0625 6.5625 16.4732 6.5625 15.75V15.0938C6.5625 14.7315 6.2685 14.4375 5.90625 14.4375C5.544 14.4375 5.25 14.7315 5.25 15.0938V15.75C5.25 17.1977 6.42731 18.375 7.875 18.375H16.8315L19.9329 20.8569C20.0524 20.9514 20.1981 21 20.3438 21C20.4396 21 20.5367 20.979 20.6286 20.9357C20.8556 20.8254 21 20.5957 21 20.3438V7.875C21 6.42731 19.8227 5.25 18.375 5.25Z" fill="black"/>
</g>
<defs>
<clipPath id="clip0_1_170">
<rect width="21" height="21" fill="white"/>
</clipPath>
</defs>
</svg>