<svg xmlns="http://www.w3.org/2000/svg" fill="none" viewBox="0 0 41 41">
<g clip-path="url(#clip0_396_1118)">
<path d="M25.9506 30.7179C24.3938 30.7179 22.9027 29.9585 21.5137 28.4577C20.3911 27.2449 19.1541 26.6132 17.8361 26.5803C15.4146 26.5053 13.378 28.4714 13.3577 28.4912C12.9687 28.8722 12.3444 28.8663 11.9634 28.478C11.5823 28.0898 11.5856 27.4673 11.9732 27.085C12.0786 26.9804 14.5961 24.5556 17.8677 24.6063C19.7444 24.6478 21.4592 25.4927 22.962 27.1166C24.0418 28.2827 25.14 28.8228 26.2034 28.732C28.257 28.5518 29.8033 26.1816 29.8192 26.1573C30.1133 25.6993 30.7233 25.565 31.1819 25.8592C31.6399 26.1527 31.7748 26.7607 31.4832 27.2193C31.3997 27.3503 29.4119 30.4245 26.3883 30.6975C26.2415 30.7106 26.096 30.7179 25.9506 30.7179Z" fill="#D6D6D6"/>
<path d="M29.6137 15.127C29.6137 16.4312 28.5576 17.4879 27.2541 17.4879C25.9513 17.4879 24.8939 16.4312 24.8939 15.127C24.8939 13.8235 25.9513 12.7667 27.2541 12.7667C28.5576 12.7667 29.6137 13.8235 29.6137 15.127Z" fill="#D6D6D6"/>
<path d="M16.0449 15.127C16.0449 16.4312 14.9888 17.4879 13.6846 17.4879C12.3818 17.4879 11.325 16.4312 11.325 15.127C11.325 13.8235 12.3818 12.7667 13.6846 12.7667C14.9888 12.7667 16.0449 13.8235 16.0449 15.127Z" fill="#D6D6D6"/>
<path d="M20.5003 41C9.19898 41 0.00463867 31.8037 0.00463867 20.5004C0.00463867 9.19632 9.19898 0 20.5003 0C31.8017 0 40.9953 9.19632 40.9953 20.5003C40.9954 31.8036 31.8017 41 20.5003 41ZM20.5003 1.97472C10.2873 1.97472 1.97863 10.2854 1.97863 20.5004C1.97863 30.7153 10.2873 39.026 20.5003 39.026C30.7126 39.026 39.0213 30.7153 39.0213 20.5004C39.0213 10.2854 30.7126 1.97472 20.5003 1.97472Z" fill="#D6D6D6"/>
</g>
<defs>
<clipPath id="clip0_396_1118">
<rect width="41" height="41" fill="white"/>
</clipPath>
</defs>
</svg>