<svg width="27" height="27" viewBox="0 0 27 27" fill="none" xmlns="http://www.w3.org/2000/svg">
<g clip-path="url(#clip0_396_1100)">
<path d="M27 9.4034C27 7.98679 25.8475 6.83425 24.4308 6.83425C23.0142 6.83425 21.8619 7.98679 21.8619 9.4034C21.8619 10.0844 22.1287 10.704 22.5629 11.1642C21.7906 12.0282 20.6692 12.5734 19.4221 12.5734C17.4034 12.5734 15.7126 11.1463 15.3035 9.24829C15.7758 8.78213 16.0692 8.1351 16.0692 7.42072C16.0692 6.0041 14.9166 4.85156 13.5 4.85156C12.0834 4.85156 10.9308 6.0041 10.9308 7.42072C10.9308 8.1351 11.2244 8.78213 11.6965 9.24829C11.2874 11.1463 9.59663 12.5734 7.57789 12.5734C6.3308 12.5734 5.20937 12.0282 4.4371 11.1642C4.87134 10.704 5.13831 10.0844 5.13831 9.4034C5.13831 7.98679 3.98577 6.83425 2.56915 6.83425C1.15253 6.83425 0 7.98679 0 9.4034C0 10.6311 0.865791 11.6599 2.01874 11.9124C2.29209 14.1684 2.87114 17.0153 4.09598 18.9518V21.3238C4.09598 21.763 4.45193 22.1192 4.89111 22.1192H22.1089C22.5481 22.1192 22.904 21.763 22.904 21.3238V18.9518C24.1289 17.0153 24.7079 14.1687 24.9813 11.9124C26.1342 11.6597 27 10.6311 27 9.4034ZM23.4522 9.4034C23.4522 8.8637 23.8911 8.42452 24.4308 8.42452C24.9706 8.42452 25.4097 8.8637 25.4097 9.4034C25.4097 9.94311 24.9706 10.3821 24.4308 10.3821C23.8911 10.3821 23.4522 9.94311 23.4522 9.4034ZM12.5211 7.42072C12.5211 6.88101 12.9603 6.44183 13.5 6.44183C14.0397 6.44183 14.4787 6.88101 14.4787 7.42072C14.4787 7.96042 14.0397 8.39939 13.5 8.39939C12.9603 8.39939 12.5211 7.96042 12.5211 7.42072ZM1.59027 9.4034C1.59027 8.8637 2.02945 8.42452 2.56915 8.42452C3.10886 8.42452 3.54783 8.8637 3.54783 9.4034C3.54783 9.94311 3.10886 10.3821 2.56915 10.3821C2.02945 10.3821 1.59027 9.94311 1.59027 9.4034ZM5.68625 20.5287V19.5105H21.3138V20.5287H5.68625ZM21.672 17.92H5.32823C4.49128 16.5003 4.0107 14.5059 3.73508 12.7059C4.75948 13.6127 6.10545 14.1637 7.57789 14.1637C10.2212 14.1637 12.4571 12.3874 13.1556 9.96597C13.2683 9.98122 13.3832 9.98966 13.5 9.98966C13.6168 9.98966 13.7317 9.98122 13.8444 9.96597C14.5429 12.3874 16.7788 14.1637 19.4221 14.1637C20.895 14.1637 22.2418 13.6123 23.2662 12.7047C22.9907 14.5044 22.5102 16.4986 21.672 17.92Z" fill="#5201BB"/>
</g>
<defs>
<clipPath id="clip0_396_1100">
<rect width="27" height="27" fill="white"/>
</clipPath>
</defs>
</svg>
