<svg xmlns="http://www.w3.org/2000/svg" fill="none" viewBox="0 0 21 21">
<g clip-path="url(#clip0_1_183)">
<path d="M9.17879 5.20871H9.12346C8.07982 5.20871 7.23071 6.05782 7.23071 7.10146C7.23071 8.1451 8.07982 8.99421 9.12346 8.99421H9.17879C10.2225 8.99421 11.0715 8.1451 11.0715 7.10146C11.0715 6.05782 10.2225 5.20871 9.17879 5.20871ZM9.17879 8.17393H9.12346C8.5321 8.17393 8.05103 7.69286 8.05103 7.1015C8.05103 6.51014 8.5321 6.02906 9.12346 6.02906H9.17879C9.77015 6.02906 10.2512 6.51014 10.2512 7.1015C10.2512 7.69286 9.77015 8.17393 9.17879 8.17393Z" fill="black"/>
<path d="M10.6614 9.72809H7.64087C7.41438 9.72809 7.23071 9.91176 7.23071 10.1382V17.6285C7.23071 17.855 7.41438 18.0387 7.64087 18.0387H10.6614C10.8879 18.0387 11.0716 17.855 11.0716 17.6285V10.1382C11.0716 9.91172 10.8879 9.72809 10.6614 9.72809ZM10.2513 17.2184H8.05103V10.5484H10.2513V17.2184Z" fill="black"/>
<path d="M9.1309 2.47388C6.69178 2.47388 4.39868 3.42573 2.67405 5.15413C0.949676 6.88228 0 9.17985 0 11.6237C0 14.1849 1.07289 16.6277 2.95058 18.359L2.80412 20.0393C2.79206 20.1774 2.85063 20.3122 2.95973 20.3977C3.06887 20.4832 3.2137 20.5078 3.34503 20.4631L5.1352 19.8532C6.3842 20.4639 7.72763 20.7735 9.13094 20.7735C11.5701 20.7735 13.8631 19.8216 15.5877 18.0932C17.3121 16.3651 18.2618 14.0675 18.2618 11.6237C18.2618 9.17985 17.3121 6.88224 15.5877 5.15413C13.8631 3.42573 11.57 2.47388 9.1309 2.47388ZM9.1309 19.9532C7.79998 19.9532 6.5287 19.6475 5.35242 19.0446C5.29393 19.0147 5.22978 18.9994 5.1653 18.9994C5.12072 18.9994 5.07601 19.0067 5.03299 19.0213L3.6759 19.4837L3.7855 18.2267C3.79682 18.0969 3.74575 17.9695 3.64797 17.8833C1.85095 16.3008 0.820312 14.0193 0.820312 11.6237C0.820312 7.0308 4.54843 3.29419 9.1309 3.29419C13.7134 3.29419 17.4414 7.0308 17.4414 11.6237C17.4414 16.2166 13.7134 19.9532 9.1309 19.9532Z" fill="black"/>
<path d="M15.9764 0.226501C15.75 0.226501 15.5663 0.410169 15.5663 0.636658C15.5663 0.863146 15.75 1.04681 15.9764 1.04681C18.2941 1.04681 20.1797 2.9369 20.1797 5.26014C20.1797 5.48663 20.3633 5.6703 20.5898 5.6703C20.8163 5.6703 21 5.48663 21 5.26014C21 2.48458 18.7464 0.226501 15.9764 0.226501Z" fill="black"/>
<path d="M16.408 2.30182C16.1815 2.30182 15.9978 2.48549 15.9978 2.71198C15.9978 2.93846 16.1815 3.12213 16.408 3.12213C17.3459 3.12213 18.1089 3.88724 18.1089 4.82768C18.1089 5.05417 18.2926 5.23784 18.5191 5.23784C18.7456 5.23784 18.9292 5.05417 18.9292 4.82768C18.9292 3.43492 17.7982 2.30182 16.408 2.30182Z" fill="black"/>
</g>
<defs>
<clipPath id="clip0_1_183">
<rect width="21" height="21" fill="white"/>
</clipPath>
</defs>
</svg>