<svg xmlns="http://www.w3.org/2000/svg" fill="none" viewBox="3.63 0 21.75 29">
<path d="M25.198 6.21869L19.1563 0.177002C19.043 0.0637207 18.8896 0 18.7291 0H6.04163C4.70944 0 3.625 1.08382 3.625 2.41669V26.5834C3.625 27.9162 4.70944 29 6.04169 29H22.9584C24.2906 29 25.375 27.9162 25.375 26.5833V6.64581C25.375 6.48535 25.3113 6.33197 25.198 6.21869ZM19.3333 2.06268L23.3123 6.04169H20.5416C19.8749 6.04169 19.3333 5.49946 19.3333 4.83337V2.06268ZM24.1667 26.5833C24.1667 27.2494 23.625 27.7916 22.9584 27.7916H6.04169C5.37497 27.7916 4.83337 27.2494 4.83337 26.5833V2.41669C4.83337 1.75059 5.37503 1.20837 6.04169 1.20837H18.125V4.83337C18.125 6.16618 19.2094 7.25 20.5417 7.25H24.1667V26.5833Z" fill="white"/>
<path d="M21.1458 16.9167H7.85419C7.52023 16.9167 7.25 17.187 7.25 17.5209C7.25 17.8549 7.52023 18.1251 7.85419 18.1251H21.1459C21.4798 18.1251 21.7501 17.8549 21.7501 17.5209C21.75 17.187 21.4798 16.9167 21.1458 16.9167Z" fill="white"/>
<path d="M21.1458 13.2917H7.85419C7.52023 13.2917 7.25 13.562 7.25 13.8959C7.25 14.2299 7.52023 14.5001 7.85419 14.5001H21.1459C21.4798 14.5001 21.7501 14.2299 21.7501 13.8959C21.75 13.562 21.4798 13.2917 21.1458 13.2917Z" fill="white"/>
<path d="M21.1458 20.5417H7.85419C7.52023 20.5417 7.25 20.812 7.25 21.1459C7.25 21.4799 7.52023 21.7501 7.85419 21.7501H21.1459C21.4798 21.7501 21.7501 21.4799 21.7501 21.1459C21.75 20.812 21.4798 20.5417 21.1458 20.5417Z" fill="white"/>
<path d="M15.1042 24.1667H7.85419C7.52023 24.1667 7.25 24.437 7.25 24.7709C7.25 25.1049 7.52023 25.3751 7.85419 25.3751H15.1042C15.4381 25.3751 15.7084 25.1049 15.7084 24.7709C15.7083 24.437 15.4381 24.1667 15.1042 24.1667Z" fill="white"/>
<path d="M13.2917 10.2709C13.2917 10.6049 13.5619 10.8751 13.8959 10.8751H21.1459C21.4798 10.8751 21.7501 10.6049 21.7501 10.2709C21.7501 9.93698 21.4798 9.66675 21.1459 9.66675H13.8959C13.5619 9.6668 13.2917 9.93704 13.2917 10.2709Z" fill="white"/>
<path d="M9.0625 9.66662H7.85419C7.52023 9.66662 7.25 9.93685 7.25 10.2708C7.25 10.6048 7.52023 10.875 7.85419 10.875H8.45837C8.45837 11.2089 8.7286 11.4792 9.06256 11.4792C9.39651 11.4792 9.66674 11.2089 9.66674 10.875V10.7637C10.3684 10.5134 10.875 9.84906 10.875 9.06243C10.875 8.06295 10.062 7.24993 9.0625 7.24993C8.72974 7.24993 8.45831 6.97913 8.45831 6.64575C8.45831 6.31242 8.72974 6.04156 9.0625 6.04156H10.2708C10.6048 6.04156 10.875 5.77133 10.875 5.43737C10.875 5.10342 10.6048 4.83319 10.2708 4.83319H9.66663C9.66663 4.49924 9.3964 4.229 9.06244 4.229C8.72849 4.229 8.45826 4.49924 8.45826 4.83319V4.94449C7.75659 5.19478 7.25 5.85912 7.25 6.64575C7.25 7.64523 8.06302 8.45825 9.0625 8.45825C9.39526 8.45825 9.66669 8.72904 9.66669 9.06243C9.66669 9.39582 9.39526 9.66662 9.0625 9.66662Z" fill="white"/>
</svg>