<svg width="26" height="26" viewBox="0 0 26 26" fill="none" xmlns="http://www.w3.org/2000/svg">
<g clip-path="url(#clip0_396_1094)">
<path d="M21.3704 19.1063C21.8989 18.6842 22.306 18.1183 22.5367 17.4688H22.75C23.6462 17.4688 24.375 16.7399 24.375 15.8438C24.375 15.2449 24.0459 14.7266 23.5625 14.4446V12.5938C23.5625 10.8018 22.1045 9.34375 20.3125 9.34375H17.875C16.083 9.34375 14.625 10.8018 14.625 12.5938V14.4446C14.1416 14.7266 13.8125 15.2449 13.8125 15.8438C13.8125 16.7399 14.5413 17.4688 15.4375 17.4688H15.6508C15.8815 18.1183 16.2886 18.6838 16.8171 19.1063C14.4674 19.2347 12.5938 21.1811 12.5938 23.5625V25.1875C12.5938 25.4122 12.7758 25.5938 13 25.5938H25.1875C25.4117 25.5938 25.5938 25.4122 25.5938 25.1875V23.5625C25.5938 21.1811 23.7201 19.2347 21.3704 19.1063ZM17.2733 19.9062L18.5494 21.5012L17.3119 22.7386L16.7485 19.9221C16.8525 19.9132 16.9565 19.9062 17.0625 19.9062H17.2733ZM19.8733 19.9062L19.0938 20.8808L18.3142 19.9062H19.8733ZM20.9142 19.9062H21.125C21.231 19.9062 21.335 19.9132 21.4386 19.9221L20.8752 22.7386L19.6377 21.5012L20.9142 19.9062ZM22.75 16.6562H22.726C22.7411 16.5226 22.75 16.3873 22.75 16.25V15.0312C23.1981 15.0312 23.5625 15.3957 23.5625 15.8438C23.5625 16.2918 23.1981 16.6562 22.75 16.6562ZM15.4375 12.5938C15.4375 11.2495 16.5307 10.1562 17.875 10.1562H20.3125C21.6568 10.1562 22.75 11.2495 22.75 12.5938V14.2188H22.3438H21.125C20.6769 14.2188 20.3125 13.8543 20.3125 13.4062V12.1875V11.7812H19.5V12.1875C19.5 13.3075 18.5888 14.2188 17.4688 14.2188H15.8438H15.4375V12.5938ZM15.4375 16.6562C14.9894 16.6562 14.625 16.2918 14.625 15.8438C14.625 15.3957 14.9894 15.0312 15.4375 15.0312V16.25C15.4375 16.3873 15.4464 16.5226 15.4615 16.6562H15.4375ZM16.25 16.25V15.0312H17.4688C18.3316 15.0312 19.1047 14.6433 19.6267 14.0343C19.8729 14.6193 20.4514 15.0312 21.125 15.0312H21.9375V16.25C21.9375 17.8177 20.6619 19.0938 19.0938 19.0938C17.5256 19.0938 16.25 17.8177 16.25 16.25ZM24.7812 24.7812H13.4062V23.5625C13.4062 21.9338 14.4775 20.5514 15.9518 20.0801L16.6644 23.6425C16.6936 23.7892 16.8017 23.9082 16.9451 23.9517C16.9837 23.9631 17.0231 23.9688 17.0625 23.9688C17.1685 23.9688 17.2725 23.9269 17.3497 23.8497L19.0938 22.1057L20.8378 23.8497C20.915 23.9269 21.019 23.9688 21.125 23.9688C21.1644 23.9688 21.2038 23.9631 21.2428 23.9513C21.3862 23.9082 21.4943 23.7892 21.5235 23.6421L22.2361 20.0797C23.71 20.5514 24.7812 21.9338 24.7812 23.5625V24.7812Z" fill="#5201BB"/>
<path d="M13.4062 16.25V14.625C13.4062 12.2436 11.5326 10.2972 9.18287 10.1688C9.71141 9.74675 10.1185 9.18084 10.3492 8.53125H10.5625C11.4587 8.53125 12.1875 7.80244 12.1875 6.90625C12.1875 6.30744 11.8584 5.78906 11.375 5.50712V3.65625C11.375 1.86428 9.91697 0.40625 8.125 0.40625H5.6875C3.89553 0.40625 2.4375 1.86428 2.4375 3.65625V5.50712C1.95406 5.78906 1.625 6.30744 1.625 6.90625C1.625 7.80244 2.35381 8.53125 3.25 8.53125H3.46328C3.69403 9.18084 4.10109 9.74634 4.62962 10.1688C2.27988 10.2972 0.40625 12.2436 0.40625 14.625V16.25C0.40625 16.4747 0.58825 16.6562 0.8125 16.6562H13C13.2242 16.6562 13.4062 16.4747 13.4062 16.25ZM5.08584 10.9688L6.36188 12.5637L5.12444 13.8011L4.56097 10.9846C4.66497 10.9757 4.76897 10.9688 4.875 10.9688H5.08584ZM7.68584 10.9688L6.90625 11.9433L6.12666 10.9688H7.68584ZM8.72666 10.9688H8.9375C9.04353 10.9688 9.14753 10.9757 9.25112 10.9846L8.68766 13.8011L7.45022 12.5637L8.72666 10.9688ZM10.5625 7.71875H10.5385C10.5536 7.58509 10.5625 7.44981 10.5625 7.3125V6.09375C11.0106 6.09375 11.375 6.45816 11.375 6.90625C11.375 7.35434 11.0106 7.71875 10.5625 7.71875ZM3.25 3.65625C3.25 2.31197 4.34322 1.21875 5.6875 1.21875H8.125C9.46928 1.21875 10.5625 2.31197 10.5625 3.65625V5.28125H10.1562H8.9375C8.48941 5.28125 8.125 4.91684 8.125 4.46875V3.25V2.84375H7.3125V3.25C7.3125 4.37003 6.40128 5.28125 5.28125 5.28125H3.65625H3.25V3.65625ZM3.25 7.71875C2.80191 7.71875 2.4375 7.35434 2.4375 6.90625C2.4375 6.45816 2.80191 6.09375 3.25 6.09375V7.3125C3.25 7.44981 3.25894 7.58509 3.27397 7.71875H3.25ZM4.0625 7.3125V6.09375H5.28125C6.14412 6.09375 6.91722 5.70578 7.43925 5.09681C7.68544 5.68181 8.26394 6.09375 8.9375 6.09375H9.75V7.3125C9.75 8.88022 8.47437 10.1562 6.90625 10.1562C5.33813 10.1562 4.0625 8.88022 4.0625 7.3125ZM12.5938 15.8438H1.21875V14.625C1.21875 12.9963 2.29003 11.6139 3.76431 11.1426L4.47688 14.705C4.50612 14.8517 4.61419 14.9707 4.75759 15.0142C4.79619 15.0256 4.83559 15.0312 4.875 15.0312C4.98103 15.0312 5.08503 14.9894 5.16222 14.9122L6.90625 13.1682L8.65028 14.9122C8.72747 14.9894 8.83147 15.0312 8.9375 15.0312C8.97691 15.0312 9.01631 15.0256 9.05531 15.0138C9.19872 14.9707 9.30678 14.8517 9.33603 14.7046L10.0486 11.1422C11.5225 11.6139 12.5938 12.9963 12.5938 14.625V15.8438Z" fill="#5201BB"/>
<path d="M11.7813 24.7813C9.67851 24.7813 7.94342 23.1749 7.73908 21.125H8.93752C9.10164 21.125 9.24992 21.0263 9.31289 20.8744C9.37586 20.7224 9.34092 20.5477 9.22473 20.4315L6.38098 17.5878C6.22214 17.4289 5.96539 17.4289 5.80655 17.5878L2.9628 20.4315C2.84661 20.5477 2.81167 20.7224 2.87464 20.8744C2.93761 21.0263 3.08589 21.125 3.25002 21.125H4.48583C4.69261 23.6234 6.79252 25.5938 9.34377 25.5938H11.7813C12.0055 25.5938 12.1875 25.4122 12.1875 25.1875C12.1875 24.9629 12.0055 24.7813 11.7813 24.7813ZM5.28127 20.7188C5.28127 20.4941 5.09927 20.3125 4.87502 20.3125H4.2307L6.09377 18.4494L7.95683 20.3125H7.31252C7.08827 20.3125 6.90627 20.4941 6.90627 20.7188C6.90627 22.4067 7.76873 23.8973 9.07605 24.7727C6.9603 24.6342 5.28127 22.869 5.28127 20.7188Z" fill="#5201BB"/>
</g>
<defs>
<clipPath id="clip0_396_1094">
<rect width="26" height="26" fill="white"/>
</clipPath>
</defs>
</svg>
