<svg xmlns="http://www.w3.org/2000/svg" fill="none" viewBox="4 0 367 115">
<g filter="url(#filter0_d_1_55)">
<mask id="path-1-outside-1_1_55" maskUnits="userSpaceOnUse" x="4" y="0" width="367" height="115" fill="black">
<rect fill="white" x="4" width="367" height="115"/>
<path fill-rule="evenodd" clip-rule="evenodd" d="M114 1.00001C114 9.58829 107.284 16.5505 99 16.5505C90.7157 16.5505 84 9.58829 84 1.00001L22 1C12.6112 1 5 8.61116 5 18V97C5 106.389 12.6112 114 22 114H84C84 105.412 90.7158 98.4496 99 98.4496C107.284 98.4496 114 105.412 114 114H353C362.389 114 370 106.389 370 97V18C370 8.61116 362.389 1 353 1L114 1.00001Z"/>
</mask>
<path fill-rule="evenodd" clip-rule="evenodd" d="M114 1.00001C114 9.58829 107.284 16.5505 99 16.5505C90.7157 16.5505 84 9.58829 84 1.00001L22 1C12.6112 1 5 8.61116 5 18V97C5 106.389 12.6112 114 22 114H84C84 105.412 90.7158 98.4496 99 98.4496C107.284 98.4496 114 105.412 114 114H353C362.389 114 370 106.389 370 97V18C370 8.61116 362.389 1 353 1L114 1.00001Z" fill="white"/>
<path d="M114 1.00001V7.62939e-06L113 7.689e-06V1.00001H114ZM84 1.00001H85V7.7486e-06L84 7.62939e-06V1.00001ZM22 1V0V1ZM84 114V115H85L85 114L84 114ZM114 114L113 114L113 115H114V114ZM353 1V0V1ZM99 17.5505C107.87 17.5505 115 10.1063 115 1.00001H113C113 9.07028 106.698 15.5505 99 15.5505V17.5505ZM83 1.00001C83 10.1063 90.1298 17.5505 99 17.5505V15.5505C91.3017 15.5505 85 9.07028 85 1.00001H83ZM22 2L84 2.00001V7.62939e-06L22 0V2ZM6 18C6 9.16344 13.1634 2 22 2V0C12.0589 0 4 8.05888 4 18H6ZM6 97V18H4V97H6ZM22 113C13.1635 113 6 105.837 6 97H4C4 106.941 12.0589 115 22 115V113ZM84 113H22V115H84V113ZM99 97.4496C90.1298 97.4496 83 104.894 83 114L85 114C85 105.93 91.3017 99.4496 99 99.4496V97.4496ZM115 114C115 104.894 107.87 97.4496 99 97.4496V99.4496C106.698 99.4496 113 105.93 113 114L115 114ZM353 113H114V115H353V113ZM369 97C369 105.837 361.837 113 353 113V115C362.941 115 371 106.941 371 97H369ZM369 18V97H371V18H369ZM353 2C361.837 2 369 9.16345 369 18H371C371 8.05887 362.941 0 353 0V2ZM114 2.00001L353 2V0L114 7.62939e-06V2.00001Z" fill="#C20320" mask="url(#path-1-outside-1_1_55)"/>
</g>
<defs>
<filter id="filter0_d_1_55" x="0" y="0" width="375" height="123" filterUnits="userSpaceOnUse" color-interpolation-filters="sRGB">
<feFlood flood-opacity="0" result="BackgroundImageFix"/>
<feColorMatrix in="SourceAlpha" type="matrix" values="0 0 0 0 0 0 0 0 0 0 0 0 0 0 0 0 0 0 127 0" result="hardAlpha"/>
<feOffset dy="4"/>
<feGaussianBlur stdDeviation="2"/>
<feComposite in2="hardAlpha" operator="out"/>
<feColorMatrix type="matrix" values="0 0 0 0 0 0 0 0 0 0 0 0 0 0 0 0 0 0 0.08 0"/>
<feBlend mode="normal" in2="BackgroundImageFix" result="effect1_dropShadow_1_55"/>
<feBlend mode="normal" in="SourceGraphic" in2="effect1_dropShadow_1_55" result="shape"/>
</filter>
</defs>
</svg>