<svg xmlns="http://www.w3.org/2000/svg" fill="none" viewBox="0.35 0.35 23.29 23.29">
<path d="M12 0.352943C9.69646 0.352943 7.44462 1.03603 5.52927 2.31583C3.61392 3.59562 2.12109 5.41464 1.23955 7.54287C0.358013 9.67109 0.127362 12.0129 0.576767 14.2722C1.02617 16.5315 2.13545 18.6068 3.76432 20.2357C5.39319 21.8646 7.46849 22.9739 9.7278 23.4233C11.9871 23.8727 14.3289 23.642 16.4572 22.7605C18.5854 21.8789 20.4044 20.3861 21.6842 18.4708C22.964 16.5554 23.6471 14.3036 23.6471 12C23.6471 8.91101 22.42 5.94854 20.2357 3.76429C18.0515 1.58004 15.089 0.352943 12 0.352943ZM20.0259 8.16L9.85415 18.3529C9.82117 18.3857 9.78206 18.4115 9.73906 18.4291C9.69606 18.4467 9.65001 18.4556 9.60356 18.4553C9.55711 18.4556 9.51107 18.4467 9.46806 18.4291C9.42506 18.4115 9.38595 18.3857 9.35297 18.3529L3.97415 12.9565C3.91194 12.8882 3.879 12.7982 3.88238 12.7059C3.88258 12.6592 3.89204 12.613 3.91021 12.57C3.92839 12.527 3.95492 12.488 3.98827 12.4553L5.98238 10.4576C6.01519 10.4246 6.05423 10.3983 6.09724 10.3804C6.14025 10.3625 6.18638 10.3533 6.23297 10.3533C6.27956 10.3533 6.3257 10.3625 6.3687 10.3804C6.41171 10.3983 6.45075 10.4246 6.48356 10.4576L9.61768 13.5953L17.5306 5.66471C17.5634 5.63163 17.6025 5.60537 17.6455 5.58745C17.6885 5.56953 17.7346 5.56031 17.7812 5.56031C17.8278 5.56031 17.8739 5.56953 17.9169 5.58745C17.9599 5.60537 17.999 5.63163 18.0318 5.66471L20.0259 7.66235C20.0917 7.72848 20.1285 7.81794 20.1285 7.91118C20.1285 8.00442 20.0917 8.09387 20.0259 8.16Z" fill="#C20320"/>
</svg>