<svg width="373" height="121" viewBox="0 0 373 121" fill="none" xmlns="http://www.w3.org/2000/svg">
<g filter="url(#filter0_d_1_60)">
<mask id="path-1-inside-1_1_60" fill="white">
<path fill-rule="evenodd" clip-rule="evenodd" d="M113 7.62939e-06C113 8.58829 106.284 15.5505 98 15.5505C89.7157 15.5505 83 8.58829 83 7.62939e-06L21 0C11.6112 0 4 7.61116 4 17V96C4 105.389 11.6112 113 21 113H83C83 104.412 89.7158 97.4496 98 97.4496C106.284 97.4496 113 104.412 113 113H352C361.389 113 369 105.389 369 96V17C369 7.61116 361.389 0 352 0L113 7.62939e-06Z"/>
</mask>
<path fill-rule="evenodd" clip-rule="evenodd" d="M113 7.62939e-06C113 8.58829 106.284 15.5505 98 15.5505C89.7157 15.5505 83 8.58829 83 7.62939e-06L21 0C11.6112 0 4 7.61116 4 17V96C4 105.389 11.6112 113 21 113H83C83 104.412 89.7158 97.4496 98 97.4496C106.284 97.4496 113 104.412 113 113H352C361.389 113 369 105.389 369 96V17C369 7.61116 361.389 0 352 0L113 7.62939e-06Z" fill="white"/>
<path d="M113 7.62939e-06V-0.999992L112 -0.999992V7.62939e-06H113ZM83 7.62939e-06H84V-0.999992L83 -0.999992V7.62939e-06ZM21 0V-1V0ZM83 113V114H84L84 113L83 113ZM113 113L112 113L112 114H113V113ZM352 0V-1V0ZM98 16.5505C106.87 16.5505 114 9.1063 114 7.62939e-06H112C112 8.07028 105.698 14.5505 98 14.5505V16.5505ZM82 7.62939e-06C82 9.1063 89.1298 16.5505 98 16.5505V14.5505C90.3017 14.5505 84 8.07028 84 7.62939e-06H82ZM21 1L83 1.00001V-0.999992L21 -1V1ZM5 17C5 8.16344 12.1634 1 21 1V-1C11.0589 -1 3 7.05888 3 17H5ZM5 96V17H3V96H5ZM21 112C12.1635 112 5 104.837 5 96H3C3 105.941 11.0589 114 21 114V112ZM83 112H21V114H83V112ZM98 96.4496C89.1298 96.4496 82 103.894 82 113L84 113C84 104.93 90.3017 98.4496 98 98.4496V96.4496ZM114 113C114 103.894 106.87 96.4496 98 96.4496V98.4496C105.698 98.4496 112 104.93 112 113L114 113ZM352 112H113V114H352V112ZM368 96C368 104.837 360.837 112 352 112V114C361.941 114 370 105.941 370 96H368ZM368 17V96H370V17H368ZM352 1C360.837 1 368 8.16345 368 17H370C370 7.05887 361.941 -1 352 -1V1ZM113 1.00001L352 1V-1L113 -0.999992V1.00001Z" fill="#EDEDED" mask="url(#path-1-inside-1_1_60)"/>
</g>
<defs>
<filter id="filter0_d_1_60" x="0" y="0" width="373" height="121" filterUnits="userSpaceOnUse" color-interpolation-filters="sRGB">
<feFlood flood-opacity="0" result="BackgroundImageFix"/>
<feColorMatrix in="SourceAlpha" type="matrix" values="0 0 0 0 0 0 0 0 0 0 0 0 0 0 0 0 0 0 127 0" result="hardAlpha"/>
<feOffset dy="4"/>
<feGaussianBlur stdDeviation="2"/>
<feComposite in2="hardAlpha" operator="out"/>
<feColorMatrix type="matrix" values="0 0 0 0 0 0 0 0 0 0 0 0 0 0 0 0 0 0 0.08 0"/>
<feBlend mode="normal" in2="BackgroundImageFix" result="effect1_dropShadow_1_60"/>
<feBlend mode="normal" in="SourceGraphic" in2="effect1_dropShadow_1_60" result="shape"/>
</filter>
</defs>
</svg>
