<svg width="26" height="26" viewBox="0 0 26 26" fill="none" xmlns="http://www.w3.org/2000/svg">
<g clip-path="url(#clip0_396_1105)">
<path d="M21.2784 17.3425H18.6729V18.211H21.2784V17.3425Z" fill="#5201BB"/>
<path d="M17.8044 17.3425H15.1989V18.211H17.8044V17.3425Z" fill="#5201BB"/>
<path d="M14.3303 17.3425H11.7248V18.211H14.3303V17.3425Z" fill="#5201BB"/>
<path d="M25.6152 9.00619L17.0227 0.41233C16.7787 0.166 16.4462 0.0275819 16.0995 0.0280162H16.0956C15.7511 0.028179 15.4212 0.166651 15.1797 0.41233L6.06477 9.52599H1.30276C0.583255 9.52599 0 10.1092 0 10.8287V22.9878C0 23.7073 0.583255 24.2906 1.30276 24.2906H7.73664L9.03245 25.5877C9.27645 25.834 9.60892 25.9724 9.95567 25.972H9.95915C10.3037 25.9719 10.6339 25.8334 10.8754 25.5877L12.1738 24.2906H22.1469C22.8664 24.2906 23.4496 23.7073 23.4496 22.9878V13.0148L25.6131 10.8513C25.86 10.6096 25.9994 10.2788 26 9.93332C26.0013 9.58515 25.8627 9.2511 25.6152 9.00619ZM20.0911 4.71013L15.2753 9.52599H11.5876L18.2473 2.86629L20.0911 4.71013ZM15.7946 1.02463C15.9598 0.85543 16.2309 0.852173 16.4001 1.01741C16.4026 1.01979 16.405 1.02218 16.4074 1.02463L17.6333 2.25226L10.3591 9.52599H7.29284L15.7946 1.02463ZM10.2605 24.9754C10.1811 25.0583 10.0713 25.1053 9.95654 25.1057C9.84016 25.1054 9.72878 25.0585 9.64735 24.9754L8.96514 24.2906H10.9458L10.2605 24.9754ZM22.5811 22.9878C22.5811 23.2276 22.3867 23.4221 22.1469 23.4221H1.30276C1.06294 23.4221 0.868505 23.2276 0.868505 22.9878V16.9083H22.5811V22.9878ZM22.5811 16.0398H0.868505V13.4343H22.5811V16.0398ZM22.5811 12.5658H0.868505V10.8287C0.868505 10.5889 1.06294 10.3945 1.30276 10.3945H22.1469C22.3867 10.3945 22.5811 10.5889 22.5811 10.8287V12.5658ZM25.0012 10.2351L23.4496 11.7867V10.8287C23.4496 10.1092 22.8664 9.52599 22.1469 9.52599H16.5016L20.7034 5.32416L24.9995 9.62022C25.0829 9.70197 25.1299 9.8139 25.1298 9.93071C25.1296 10.0454 25.0833 10.1551 25.0012 10.2351Z" fill="#5201BB"/>
<path d="M4.16489 22.5653C4.22829 22.5105 4.28768 22.4511 4.3425 22.3877C4.91675 23.0565 5.90342 23.1836 6.62841 22.6821C7.09631 22.3549 7.37717 21.8217 7.38227 21.2508C7.38227 20.2915 6.60458 19.5138 5.64526 19.5138C5.55906 19.5126 5.47297 19.5199 5.38818 19.5355L5.37689 19.5386C5.37255 19.5386 5.36821 19.5386 5.3643 19.5386C4.96647 19.6047 4.60468 19.8088 4.3425 20.1152C3.71501 19.3896 2.61803 19.3101 1.89245 19.9376C1.16681 20.5651 1.08729 21.6621 1.71484 22.3877C2.34233 23.1133 3.43926 23.1928 4.16489 22.5653ZM5.53539 20.3914C5.5716 20.3845 5.6084 20.3815 5.64526 20.3823C6.12495 20.3823 6.51376 20.7711 6.51376 21.2508C6.51333 21.4346 6.45346 21.6132 6.3431 21.7602C6.32747 21.7815 6.31531 21.8036 6.29751 21.8258C6.29447 21.8292 6.29012 21.8314 6.28665 21.8349C6.12261 22.016 5.88964 22.1194 5.64526 22.1193C5.16568 22.1111 4.78349 21.7157 4.79168 21.2362C4.79896 20.8103 5.1139 20.4525 5.53539 20.3914ZM3.03974 20.3823C3.51943 20.3823 3.90825 20.7711 3.90825 21.2508C3.90825 21.7305 3.51943 22.1193 3.03974 22.1193C2.56006 22.1193 2.17124 21.7305 2.17124 21.2508C2.17124 20.7711 2.56006 20.3823 3.03974 20.3823Z" fill="#5201BB"/>
</g>
<defs>
<clipPath id="clip0_396_1105">
<rect width="26" height="26" fill="#C20320"/>
</clipPath>
</defs>
</svg>
