<svg xmlns="http://www.w3.org/2000/svg" fill="none" viewBox="7.54 4.33 21.91 25.13">
<path d="M18.5 17.4457C12.5963 17.4457 7.79346 22.2486 7.79346 28.1522C7.79346 28.7343 8.26576 29.2066 8.84783 29.2066C9.42993 29.2066 9.9022 28.7342 9.9022 28.1521C9.9022 23.411 13.7589 19.5543 18.5 19.5543C23.2411 19.5543 27.0978 23.411 27.0978 28.1521C27.0978 28.7342 27.5701 29.2065 28.1522 29.2065C28.7342 29.2065 29.2065 28.7342 29.2065 28.1521C29.2065 22.2486 24.4037 17.4457 18.5 17.4457Z" fill="black" stroke="black" stroke-width="0.5"/>
<path d="M18.5 4.57608C15.2571 4.57608 12.6195 7.21363 12.6195 10.4565C12.6195 13.6994 15.2571 16.337 18.5 16.337C21.7429 16.337 24.3804 13.6994 24.3804 10.4565C24.3804 7.21371 21.7429 4.57608 18.5 4.57608ZM18.5 14.2282C16.4213 14.2282 14.7283 12.5352 14.7283 10.4565C14.7283 8.37785 16.4213 6.68483 18.5 6.68483C20.5786 6.68483 22.2717 8.37785 22.2717 10.4565C22.2717 12.5352 20.5787 14.2282 18.5 14.2282Z" fill="black" stroke="black" stroke-width="0.5"/>
</svg>