<svg xmlns="http://www.w3.org/2000/svg" fill="none" viewBox="1.98 0.5 28.02 31">
<g clip-path="url(#clip0_260_901)">
<path d="M19.47 10.22H16.97V11.22H19.47V10.22Z" fill="white"/>
<path d="M24.97 10.22H22.47V11.22H24.97V10.22Z" fill="white"/>
<path d="M23.0041 15.3079L18.0036 27.8099L18.9321 28.1813L23.9326 15.6792L23.0041 15.3079Z" fill="white"/>
<path d="M17.22 21C17.7639 21 18.2956 20.8387 18.7478 20.5365C19.2 20.2344 19.5525 19.8049 19.7606 19.3024C19.9688 18.7999 20.0232 18.2469 19.9171 17.7135C19.811 17.1801 19.5491 16.6901 19.1645 16.3055C18.7799 15.9209 18.2899 15.659 17.7565 15.5528C17.223 15.4467 16.6701 15.5012 16.1676 15.7093C15.6651 15.9175 15.2356 16.2699 14.9334 16.7222C14.6313 17.1744 14.47 17.7061 14.47 18.25C14.4713 18.9789 14.7614 19.6776 15.2769 20.1931C15.7923 20.7085 16.491 20.9987 17.22 21ZM17.22 16.5C17.5661 16.5 17.9044 16.6026 18.1922 16.7949C18.48 16.9872 18.7043 17.2605 18.8368 17.5803C18.9692 17.9001 19.0039 18.2519 18.9363 18.5914C18.8688 18.9309 18.7021 19.2427 18.4574 19.4874C18.2127 19.7322 17.9008 19.8989 17.5614 19.9664C17.2219 20.0339 16.87 19.9992 16.5503 19.8668C16.2305 19.7343 15.9572 19.51 15.7649 19.2222C15.5726 18.9345 15.47 18.5961 15.47 18.25C15.47 17.7859 15.6543 17.3408 15.9825 17.0126C16.3107 16.6844 16.7558 16.5 17.22 16.5Z" fill="white"/>
<path d="M21.97 25.25C21.97 25.7939 22.1313 26.3256 22.4334 26.7778C22.7356 27.2301 23.1651 27.5825 23.6676 27.7907C24.1701 27.9988 24.723 28.0533 25.2565 27.9472C25.7899 27.841 26.2799 27.5791 26.6645 27.1945C27.0491 26.8099 27.311 26.3199 27.4171 25.7865C27.5232 25.2531 27.4688 24.7001 27.2606 24.1976C27.0525 23.6951 26.7 23.2656 26.2478 22.9635C25.7956 22.6613 25.2639 22.5 24.72 22.5C23.991 22.5013 23.2923 22.7915 22.7769 23.3069C22.2614 23.8224 21.9713 24.5211 21.97 25.25ZM26.47 25.25C26.47 25.5961 26.3673 25.9345 26.175 26.2222C25.9828 26.51 25.7094 26.7343 25.3897 26.8668C25.0699 26.9992 24.718 27.0339 24.3786 26.9664C24.0391 26.8988 23.7273 26.7322 23.4825 26.4874C23.2378 26.2427 23.0711 25.9309 23.0036 25.5914C22.9361 25.2519 22.9707 24.9001 23.1032 24.5803C23.2356 24.2605 23.4599 23.9872 23.7477 23.7949C24.0355 23.6026 24.3739 23.5 24.72 23.5C25.1841 23.5 25.6292 23.6844 25.9574 24.0126C26.2856 24.3408 26.47 24.7859 26.47 25.25Z" fill="white"/>
<path d="M9.13499 6.275C8.92765 6.42417 8.69249 6.53023 8.44343 6.58691C8.19437 6.64359 7.93647 6.64975 7.68499 6.605C7.43214 6.56241 7.19021 6.47025 6.97311 6.33381C6.75601 6.19737 6.56804 6.01936 6.41999 5.81C6.34352 5.70221 6.22749 5.62907 6.09725 5.60659C5.96702 5.5841 5.83318 5.61409 5.72499 5.69L3.15999 7.5C2.5508 7.93674 2.13936 8.59697 2.01568 9.33627C1.89199 10.0756 2.06613 10.8338 2.49999 11.445L5.30499 15.405C5.38453 15.5109 5.50019 15.5838 5.62999 15.61C5.76124 15.6301 5.89524 15.5997 6.00499 15.525C6.14759 15.4214 6.30983 15.348 6.48178 15.3094C6.65373 15.2707 6.83177 15.2675 7.00499 15.3C7.26396 15.3445 7.50393 15.4647 7.69464 15.6455C7.88535 15.8263 8.01823 16.0595 8.07654 16.3157C8.13484 16.5719 8.11594 16.8396 8.02223 17.0851C7.92852 17.3306 7.7642 17.5428 7.54999 17.695C7.49592 17.7329 7.44988 17.7811 7.41454 17.8369C7.37921 17.8927 7.35527 17.9549 7.34411 18.02C7.33296 18.0851 7.3348 18.1517 7.34954 18.2161C7.36428 18.2805 7.39162 18.3413 7.42999 18.395L11.93 24.755V28.5C11.93 29.2957 12.2461 30.0587 12.8087 30.6213C13.3713 31.1839 14.1343 31.5 14.93 31.5H27C27.7956 31.5 28.5587 31.1839 29.1213 30.6213C29.6839 30.0587 30 29.2957 30 28.5V12.73C30 12.5974 29.9473 12.4702 29.8535 12.3764C29.7598 12.2827 29.6326 12.23 29.5 12.23C29.1492 12.1721 28.8304 11.9916 28.6004 11.7205C28.3704 11.4495 28.2441 11.1055 28.2441 10.75C28.2441 10.3945 28.3704 10.0505 28.6004 9.77948C28.8304 9.50842 29.1492 9.32786 29.5 9.27C29.6326 9.27 29.7598 9.21732 29.8535 9.12355C29.9473 9.02979 30 8.90261 30 8.77V3.5C30 2.70435 29.6839 1.94129 29.1213 1.37868C28.5587 0.816071 27.7956 0.5 27 0.5H23.6C23.4674 0.5 23.3402 0.552679 23.2464 0.646447C23.1527 0.740215 23.1 0.867392 23.1 1C23.0734 1.55163 22.8355 2.07186 22.4357 2.45284C22.0359 2.83383 21.5048 3.04635 20.9525 3.04635C20.4002 3.04635 19.8691 2.83383 19.4693 2.45284C19.0695 2.07186 18.8316 1.55163 18.805 1C18.805 0.867392 18.7523 0.740215 18.6585 0.646447C18.5648 0.552679 18.4376 0.5 18.305 0.5H14.905C14.7002 0.499898 14.4959 0.519995 14.295 0.56C13.5808 0.459122 12.8552 0.638277 12.27 1.06L9.71999 2.865C9.66592 2.90289 9.61988 2.95112 9.58454 3.0069C9.54921 3.06268 9.52527 3.12491 9.51411 3.18999C9.50296 3.25507 9.5048 3.32172 9.51954 3.38609C9.53428 3.45045 9.56162 3.51126 9.59999 3.565C9.8975 3.9861 10.0156 4.50809 9.92845 5.01625C9.84126 5.52442 9.55586 5.97717 9.13499 6.275ZM17.86 1.5C17.9821 2.23597 18.3615 2.9047 18.9306 3.38711C19.4996 3.86952 20.2215 4.1343 20.9675 4.1343C21.7135 4.1343 22.4353 3.86952 23.0044 3.38711C23.5735 2.9047 23.9529 2.23597 24.075 1.5H27C27.5304 1.5 28.0391 1.71071 28.4142 2.08579C28.7893 2.46086 29 2.96957 29 3.5V8.3C28.4548 8.4318 27.9698 8.74308 27.6229 9.18382C27.276 9.62455 27.0874 10.1691 27.0874 10.73C27.0874 11.2909 27.276 11.8355 27.6229 12.2762C27.9698 12.7169 28.4548 13.0282 29 13.16V28.5C29 29.0304 28.7893 29.5391 28.4142 29.9142C28.0391 30.2893 27.5304 30.5 27 30.5H14.92C14.3896 30.5 13.8809 30.2893 13.5058 29.9142C13.1307 29.5391 12.92 29.0304 12.92 28.5V13.18C13.4652 13.0482 13.9502 12.7369 14.2971 12.2962C14.6439 11.8554 14.8325 11.3109 14.8325 10.75C14.8325 10.1891 14.6439 9.64455 14.2971 9.20382C13.9502 8.76308 13.4652 8.4518 12.92 8.32V3.5C12.92 2.96957 13.1307 2.46086 13.5058 2.08579C13.8809 1.71071 14.3896 1.5 14.92 1.5H17.86ZM10.67 3.42L12.13 2.385C11.9832 2.73851 11.9068 3.11724 11.905 3.5V8.75C11.905 8.88261 11.9577 9.00979 12.0514 9.10355C12.1452 9.19732 12.2724 9.25 12.405 9.25C12.6197 9.21458 12.8396 9.22631 13.0493 9.28438C13.2591 9.34245 13.4537 9.44547 13.6196 9.58628C13.7856 9.72709 13.9189 9.90233 14.0103 10.0998C14.1018 10.2973 14.1491 10.5124 14.1491 10.73C14.1491 10.9476 14.1018 11.1627 14.0103 11.3602C13.9189 11.5577 13.7856 11.7329 13.6196 11.8737C13.4537 12.0145 13.2591 12.1176 13.0493 12.1756C12.8396 12.2337 12.6197 12.2454 12.405 12.21C12.2724 12.21 12.1452 12.2627 12.0514 12.3564C11.9577 12.4502 11.905 12.5774 11.905 12.71V23.025L8.49999 18.18C8.8587 17.7877 9.07181 17.2841 9.10367 16.7535C9.13552 16.2229 8.98419 15.6974 8.67499 15.265C8.32036 14.7624 7.78098 14.4208 7.17499 14.315C6.73675 14.2368 6.28523 14.2871 5.87499 14.46L3.30499 10.865C3.02659 10.4702 2.91604 9.98122 2.99758 9.50511C3.07912 9.02899 3.3461 8.60462 3.73999 8.325L5.92999 6.77C6.42203 7.26047 7.07115 7.56189 7.76335 7.62133C8.45554 7.68076 9.14654 7.49441 9.71499 7.095C10.2798 6.69159 10.6848 6.10255 10.8594 5.43081C11.034 4.75906 10.9669 4.04733 10.67 3.42Z" fill="white"/>
</g>
</svg>