<svg xmlns="http://www.w3.org/2000/svg" fill="none" viewBox="2.86 18.89 26.65 27.89">
<g clip-path="url(#clip0_137_582)">
<path d="M19.8254 27.6545H17.4023V28.4514H19.8254V27.6545Z" fill="#FBBF49"/>
<path d="M24.6716 27.6545H22.2485V28.4514H24.6716V27.6545Z" fill="#FBBF49"/>
<path d="M23.0076 32.2053L18.3081 43.6192L19.1807 43.9582L23.8802 32.5443L23.0076 32.2053Z" fill="#FBBF49"/>
<path d="M17.4021 37.217C17.8813 37.217 18.3498 37.0768 18.7483 36.8141C19.1467 36.5515 19.4573 36.1781 19.6407 35.7413C19.8241 35.3044 19.8721 34.8238 19.7786 34.36C19.6851 33.8963 19.4543 33.4703 19.1155 33.136C18.7766 32.8017 18.3448 32.574 17.8748 32.4817C17.4048 32.3895 16.9176 32.4368 16.4748 32.6178C16.032 32.7987 15.6536 33.1051 15.3874 33.4983C15.1211 33.8914 14.979 34.3536 14.979 34.8264C14.9802 35.4601 15.2358 36.0675 15.69 36.5156C16.1442 36.9637 16.7598 37.2159 17.4021 37.217ZM17.4021 33.3051C17.7071 33.3051 18.0052 33.3943 18.2587 33.5615C18.5123 33.7287 18.71 33.9663 18.8267 34.2442C18.9434 34.5222 18.9739 34.8281 18.9144 35.1232C18.8549 35.4183 18.7081 35.6894 18.4924 35.9021C18.2768 36.1149 18.002 36.2598 17.7029 36.3185C17.4038 36.3772 17.0938 36.3471 16.812 36.2319C16.5302 36.1168 16.2894 35.9218 16.12 35.6716C15.9506 35.4214 15.8601 35.1273 15.8601 34.8264C15.8601 34.4229 16.0226 34.036 16.3118 33.7507C16.6009 33.4654 16.9931 33.3051 17.4021 33.3051Z" fill="#FBBF49"/>
<path d="M22.2485 41.2014C22.2485 41.6742 22.3906 42.1364 22.6569 42.5296C22.9231 42.9227 23.3016 43.2291 23.7443 43.4101C24.1871 43.591 24.6743 43.6383 25.1443 43.5461C25.6144 43.4539 26.0461 43.2262 26.385 42.8918C26.7239 42.5575 26.9546 42.1315 27.0481 41.6678C27.1416 41.2041 27.0936 40.7234 26.9102 40.2866C26.7268 39.8497 26.4163 39.4764 26.0178 39.2137C25.6193 38.951 25.1509 38.8108 24.6716 38.8108C24.0293 38.8119 23.4137 39.0642 22.9595 39.5123C22.5054 39.9603 22.2497 40.5677 22.2485 41.2014ZM26.2136 41.2014C26.2136 41.5023 26.1231 41.7964 25.9537 42.0466C25.7843 42.2968 25.5434 42.4918 25.2617 42.6069C24.9799 42.7221 24.6699 42.7522 24.3708 42.6935C24.0717 42.6348 23.7969 42.4899 23.5813 42.2771C23.3656 42.0644 23.2188 41.7933 23.1593 41.4982C23.0998 41.2031 23.1303 40.8972 23.247 40.6192C23.3637 40.3413 23.5614 40.1037 23.8149 39.9365C24.0685 39.7693 24.3666 39.6801 24.6716 39.6801C25.0806 39.6801 25.4728 39.8404 25.7619 40.1257C26.0511 40.411 26.2136 40.7979 26.2136 41.2014Z" fill="#FBBF49"/>
<path d="M9.67193 24.0847C9.47472 24.2189 9.25105 24.3143 9.01416 24.3653C8.77727 24.4163 8.53197 24.4218 8.29278 24.3816C8.05229 24.3433 7.82218 24.2603 7.61569 24.1376C7.4092 24.0148 7.23041 23.8547 7.0896 23.6663C7.01687 23.5693 6.9065 23.5035 6.78263 23.4833C6.65876 23.4631 6.53146 23.49 6.42856 23.5583L3.98889 25.1868C3.40947 25.5797 3.01814 26.1737 2.9005 26.8389C2.78286 27.504 2.94848 28.1862 3.36115 28.7361L6.02908 32.2989C6.10473 32.3942 6.21474 32.4598 6.3382 32.4833C6.46304 32.5014 6.59049 32.4741 6.69488 32.4069C6.83051 32.3137 6.98482 32.2477 7.14837 32.2129C7.31192 32.178 7.48125 32.1752 7.64601 32.2044C7.89232 32.2445 8.12057 32.3527 8.30196 32.5153C8.48335 32.6779 8.60974 32.8877 8.6652 33.1182C8.72065 33.3488 8.70268 33.5896 8.61355 33.8105C8.52441 34.0314 8.36812 34.2223 8.16438 34.3592C8.11295 34.3933 8.06916 34.4367 8.03555 34.4869C8.00194 34.5371 7.97917 34.5931 7.96856 34.6516C7.95795 34.7102 7.9597 34.7701 7.97372 34.828C7.98774 34.8859 8.01375 34.9407 8.05024 34.989L12.3304 40.7111V44.0804C12.3304 44.7963 12.631 45.4828 13.1661 45.989C13.7012 46.4952 14.427 46.7795 15.1838 46.7795H26.664C27.4207 46.7795 28.1465 46.4952 28.6816 45.989C29.2167 45.4828 29.5174 44.7963 29.5174 44.0804V29.8922C29.5174 29.7729 29.4673 29.6585 29.3781 29.5741C29.2889 29.4898 29.1679 29.4424 29.0418 29.4424C28.7082 29.3903 28.4049 29.2279 28.1862 28.984C27.9674 28.7401 27.8473 28.4307 27.8473 28.1108C27.8473 27.791 27.9674 27.4815 28.1862 27.2376C28.4049 26.9938 28.7082 26.8313 29.0418 26.7793C29.1679 26.7793 29.2889 26.7319 29.3781 26.6475C29.4673 26.5631 29.5174 26.4487 29.5174 26.3294V21.588C29.5174 20.8722 29.2167 20.1856 28.6816 19.6795C28.1465 19.1733 27.4207 18.8889 26.664 18.8889H23.4301C23.304 18.8889 23.183 18.9363 23.0938 19.0207C23.0046 19.105 22.9545 19.2195 22.9545 19.3388C22.9292 19.8351 22.703 20.3031 22.3227 20.6459C21.9424 20.9887 21.4373 21.1799 20.912 21.1799C20.3867 21.1799 19.8815 20.9887 19.5013 20.6459C19.121 20.3031 18.8947 19.8351 18.8694 19.3388C18.8694 19.2195 18.8193 19.105 18.7301 19.0207C18.6409 18.9363 18.52 18.8889 18.3938 18.8889H15.16C14.9652 18.8888 14.7708 18.9069 14.5798 18.9429C13.9005 18.8521 13.2103 19.0133 12.6537 19.3927L10.2283 21.0167C10.1769 21.0508 10.1331 21.0942 10.0995 21.1444C10.0659 21.1946 10.0431 21.2505 10.0325 21.3091C10.0219 21.3677 10.0237 21.4276 10.0377 21.4855C10.0517 21.5434 10.0777 21.5981 10.1142 21.6465C10.3972 22.0253 10.5096 22.495 10.4266 22.9522C10.3437 23.4094 10.0722 23.8167 9.67193 24.0847ZM17.9706 19.7886C18.0868 20.4508 18.4476 21.0524 18.9889 21.4864C19.5301 21.9205 20.2167 22.1587 20.9262 22.1587C21.6358 22.1587 22.3224 21.9205 22.8636 21.4864C23.4049 21.0524 23.7657 20.4508 23.8819 19.7886H26.664C27.1685 19.7886 27.6523 19.9782 28.0091 20.3156C28.3658 20.6531 28.5662 21.1108 28.5662 21.588V25.9066C28.0477 26.0251 27.5864 26.3052 27.2565 26.7017C26.9265 27.0983 26.7471 27.5882 26.7471 28.0928C26.7471 28.5974 26.9265 29.0874 27.2565 29.4839C27.5864 29.8804 28.0477 30.1605 28.5662 30.2791V44.0804C28.5662 44.5577 28.3658 45.0154 28.0091 45.3528C27.6523 45.6903 27.1685 45.8798 26.664 45.8798H15.1742C14.6697 45.8798 14.1859 45.6903 13.8291 45.3528C13.4724 45.0154 13.272 44.5577 13.272 44.0804V30.2971C13.7905 30.1785 14.2518 29.8984 14.5817 29.5019C14.9117 29.1054 15.0911 28.6154 15.0911 28.1108C15.0911 27.6062 14.9117 27.1162 14.5817 26.7197C14.2518 26.3232 13.7905 26.0431 13.272 25.9246V21.588C13.272 21.1108 13.4724 20.6531 13.8291 20.3156C14.1859 19.9782 14.6697 19.7886 15.1742 19.7886H17.9706ZM11.1319 21.516L12.5206 20.5848C12.381 20.9029 12.3083 21.2436 12.3066 21.588V26.3114C12.3066 26.4307 12.3567 26.5451 12.4459 26.6295C12.5351 26.7139 12.656 26.7613 12.7821 26.7613C12.9864 26.7294 13.1955 26.74 13.395 26.7922C13.5945 26.8444 13.7796 26.9371 13.9374 27.0638C14.0953 27.1905 14.2221 27.3482 14.309 27.5259C14.396 27.7036 14.441 27.897 14.441 28.0928C14.441 28.2886 14.396 28.4821 14.309 28.6598C14.2221 28.8375 14.0953 28.9951 13.9374 29.1218C13.7796 29.2485 13.5945 29.3412 13.395 29.3934C13.1955 29.4457 12.9864 29.4562 12.7821 29.4244C12.656 29.4244 12.5351 29.4718 12.4459 29.5561C12.3567 29.6405 12.3066 29.7549 12.3066 29.8742V39.1546L9.06796 34.7956C9.40914 34.4426 9.61184 33.9895 9.64213 33.5121C9.67243 33.0347 9.5285 32.562 9.23441 32.173C8.8971 31.7207 8.38408 31.4134 7.8077 31.3182C7.39088 31.2479 6.96142 31.2932 6.57123 31.4487L4.12681 28.2143C3.86201 27.8591 3.75686 27.4191 3.83442 26.9908C3.91198 26.5624 4.1659 26.1806 4.54055 25.929L6.62354 24.53C7.09154 24.9713 7.70894 25.2425 8.36731 25.296C9.02568 25.3494 9.68292 25.1818 10.2236 24.8224C10.7608 24.4595 11.146 23.9295 11.3121 23.3251C11.4781 22.7208 11.4143 22.0804 11.1319 21.516Z" fill="#FBBF49"/>
</g>
</svg>